<?xml version="1.0" encoding="UTF-8" standalone="no"?>
<!DOCTYPE svg PUBLIC "-//W3C//DTD SVG 1.1//EN" "http://www.w3.org/Graphics/SVG/1.1/DTD/svg11.dtd">
<svg xmlns="http://www.w3.org/2000/svg" version="1.1" viewBox="0.00 0.00 612.00 408.00">
<path fill="#6CBBDE" d="
  M 174.66 130.99
  A 0.46 0.46 0.0 0 1 174.32 130.21
  C 190.92 112.30 211.09 96.03 231.88 82.62
  Q 299.70 38.86 378.38 23.12
  Q 400.45 18.71 423.20 18.65
  C 439.10 18.61 459.33 21.37 470.73 33.25
  C 481.74 44.72 479.56 63.74 473.66 77.17
  Q 465.55 95.64 453.06 111.82
  Q 440.33 128.31 424.87 143.83
  A 0.18 0.18 0.0 0 1 424.58 143.64
  L 427.78 135.38
  A 1.00 0.97 -37.1 0 0 427.84 134.99
  Q 427.70 131.10 423.50 131.06
  Q 412.23 130.94 400.75 131.00
  C 397.58 131.01 396.54 132.46 395.38 135.36
  Q 379.14 175.87 376.72 181.99
  A 3.23 3.20 -8.5 0 1 375.71 183.34
  L 370.73 187.22
  A 0.32 0.32 0.0 0 1 370.24 186.85
  Q 378.57 164.13 390.00 135.97
  C 391.55 132.15 388.82 131.19 385.84 131.02
  A 0.27 0.27 0.0 0 1 385.64 130.58
  C 395.35 119.04 404.67 106.91 411.49 93.76
  C 417.70 81.78 420.72 66.81 406.91 58.67
  C 403.61 56.73 397.71 55.01 393.61 54.59
  Q 380.85 53.30 369.79 54.61
  Q 343.05 57.78 316.94 66.94
  Q 246.64 91.61 193.53 143.83
  A 0.35 0.35 0.0 0 1 192.93 143.60
  Q 192.80 141.81 192.67 138.54
  C 192.54 135.36 192.91 131.42 189.46 131.16
  C 185.21 130.85 181.47 130.97 174.66 130.99
  Z"
/>
<path fill="#6CBBDE" d="
  M 240.87 152.02
  L 247.26 135.50
  A 2.66 2.62 -43.7 0 0 247.31 133.73
  L 246.87 132.42
  A 1.18 1.17 60.0 0 1 247.20 131.18
  Q 283.66 98.64 330.80 85.04
  Q 335.66 83.64 346.76 81.53
  C 354.25 80.10 366.53 79.34 373.10 83.09
  C 390.96 93.31 366.19 121.90 357.95 131.02
  A 0.41 0.39 -67.1 0 1 357.63 131.16
  L 328.48 130.87
  A 0.25 0.25 0.0 0 1 328.30 130.45
  Q 332.51 125.87 335.08 121.58
  C 339.25 114.63 338.73 107.31 329.00 106.74
  C 320.83 106.26 312.39 108.85 304.93 111.95
  Q 287.77 119.10 272.97 130.37
  A 1.88 1.88 0.0 0 1 272.00 130.75
  Q 269.25 131.03 264.28 130.97
  C 260.65 130.93 259.15 132.16 257.84 135.69
  Q 256.95 138.05 255.64 140.71
  A 2.82 2.81 84.4 0 1 254.83 141.70
  L 241.23 152.30
  A 0.24 0.23 82.3 0 1 240.87 152.02
  Z"
/>
<path fill="#000000" d="
  M 52.55 135.13
  L 78.81 135.13
  A 0.45 0.45 0.0 0 1 79.23 135.44
  L 88.76 164.03
  A 0.45 0.45 0.0 0 0 89.61 164.05
  L 100.34 135.41
  A 0.45 0.45 0.0 0 1 100.76 135.12
  L 123.37 135.12
  A 0.45 0.45 0.0 0 1 123.79 135.73
  L 101.27 195.83
  A 0.45 0.45 0.0 0 1 100.85 196.12
  L 75.71 196.12
  A 0.45 0.45 0.0 0 1 75.28 195.80
  L 65.14 162.87
  A 0.45 0.45 0.0 0 0 64.28 162.85
  L 52.54 195.81
  A 0.45 0.45 0.0 0 1 52.11 196.11
  L 30.03 196.11
  A 0.45 0.45 0.0 0 1 29.61 195.50
  L 52.13 135.42
  A 0.45 0.45 0.0 0 1 52.55 135.13
  Z"
/>
<path fill="#000000" d="
  M 156.43 135.14
  L 188.02 135.14
  A 0.68 0.68 0.0 0 1 188.70 135.79
  L 191.48 195.41
  A 0.68 0.68 0.0 0 1 190.80 196.12
  L 166.96 196.12
  A 0.68 0.68 0.0 0 1 166.28 195.44
  L 166.28 186.67
  A 0.68 0.68 0.0 0 0 165.60 185.99
  L 139.99 185.99
  A 0.68 0.68 0.0 0 0 139.47 186.24
  L 131.58 195.87
  A 0.68 0.68 0.0 0 1 131.06 196.12
  L 107.65 196.12
  A 0.68 0.68 0.0 0 1 107.12 195.01
  L 155.91 135.39
  A 0.68 0.68 0.0 0 1 156.43 135.14
  Z
  M 165.88 171.89
  A 0.42 0.42 0.0 0 0 166.30 171.47
  L 166.30 153.43
  A 0.42 0.42 0.0 0 0 165.55 153.16
  L 150.79 171.20
  A 0.42 0.42 0.0 0 0 151.12 171.89
  L 165.88 171.89
  Z"
/>
<path fill="#000000" d="
  M 285.85 135.15
  A 0.44 0.44 0.0 0 1 286.26 135.76
  Q 274.47 165.07 271.34 173.12
  Q 268.29 180.94 265.12 184.79
  C 257.49 194.04 247.51 196.80 235.08 196.79
  C 225.95 196.79 212.41 197.89 205.76 191.99
  C 198.88 185.88 201.64 177.02 204.80 169.30
  Q 210.40 155.62 217.92 135.92
  A 1.23 1.22 -79.5 0 1 219.06 135.13
  L 242.27 135.13
  A 0.46 0.45 -79.3 0 1 242.69 135.75
  L 227.29 175.53
  A 2.57 2.55 -69.4 0 0 228.79 178.86
  Q 233.45 180.56 239.15 179.13
  Q 244.18 177.85 246.67 172.38
  Q 253.27 157.85 262.05 135.63
  A 0.77 0.76 10.7 0 1 262.76 135.15
  L 285.85 135.15
  Z"
/>
<path fill="#000000" d="
  M 304.55 150.69
  L 288.15 150.69
  A 0.61 0.61 0.0 0 1 287.58 149.86
  L 293.14 135.52
  A 0.61 0.61 0.0 0 1 293.71 135.13
  L 353.15 135.13
  A 0.61 0.61 0.0 0 1 353.72 135.96
  L 348.16 150.31
  A 0.61 0.61 0.0 0 1 347.59 150.70
  L 330.12 150.70
  A 0.61 0.61 0.0 0 0 329.55 151.09
  L 312.27 195.73
  A 0.61 0.61 0.0 0 1 311.70 196.12
  L 288.74 196.12
  A 0.61 0.61 0.0 0 1 288.17 195.29
  L 305.12 151.52
  A 0.61 0.61 0.0 0 0 304.55 150.69
  Z"
/>
<path fill="#000000" d="
  M 362.27 135.16
  L 385.42 135.16
  A 0.52 0.52 0.0 0 1 385.91 135.87
  L 362.70 195.80
  A 0.52 0.52 0.0 0 1 362.21 196.13
  L 339.06 196.13
  A 0.52 0.52 0.0 0 1 338.57 195.42
  L 361.78 135.49
  A 0.52 0.52 0.0 0 1 362.27 135.16
  Z"
/>
<path fill="#000000" d="
  M 427.21 196.13
  L 375.97 196.13
  A 0.60 0.60 0.0 0 1 375.41 195.31
  L 399.32 135.55
  A 0.60 0.60 0.0 0 1 399.88 135.17
  L 422.91 135.17
  A 0.60 0.60 0.0 0 1 423.47 136.00
  L 405.83 178.45
  A 0.60 0.60 0.0 0 0 406.39 179.28
  L 433.47 179.28
  A 0.60 0.60 0.0 0 1 434.03 180.10
  L 427.77 195.75
  A 0.60 0.60 0.0 0 1 427.21 196.13
  Z"
/>
<path fill="#000000" d="
  M 478.36 135.12
  A 0.42 0.41 -81.2 0 1 478.75 135.66
  Q 478.03 137.84 476.89 140.64
  Q 469.39 159.07 463.12 175.18
  A 3.20 3.17 32.3 0 0 463.92 178.66
  Q 464.56 179.26 466.51 179.54
  C 471.02 180.18 476.01 179.80 479.27 176.47
  Q 480.41 175.29 481.95 171.41
  Q 485.77 161.78 496.12 135.95
  A 1.27 1.27 0.0 0 1 497.30 135.15
  L 519.55 135.15
  A 0.56 0.56 0.0 0 1 520.07 135.91
  Q 508.80 163.95 505.06 173.81
  Q 501.93 182.07 499.46 185.17
  C 493.06 193.19 483.38 196.47 473.00 196.58
  C 463.78 196.67 455.41 197.49 447.56 194.71
  C 436.00 190.62 437.46 180.50 440.96 171.20
  Q 445.53 159.03 455.19 135.56
  A 0.71 0.70 -78.7 0 1 455.84 135.12
  L 478.36 135.12
  Z"
/>
<path fill="#000000" d="
  M 508.75 196.12
  A 0.38 0.38 0.0 0 1 508.39 195.60
  L 514.59 180.09
  A 1.35 1.35 0.0 0 1 515.82 179.26
  L 550.64 179.21
  A 4.27 4.26 -82.8 0 0 554.77 176.00
  L 554.79 175.94
  A 2.56 2.55 -82.5 0 0 552.32 172.72
  Q 535.80 172.79 535.33 172.78
  C 528.14 172.62 520.00 170.59 520.57 161.75
  Q 521.07 154.09 525.91 146.86
  Q 533.76 135.15 548.76 135.16
  Q 581.04 135.18 586.68 135.12
  A 0.54 0.54 0.0 0 1 587.18 135.86
  L 581.60 149.81
  A 1.41 1.40 10.6 0 1 580.31 150.69
  L 549.02 150.78
  A 4.79 4.79 0.0 0 0 544.60 153.76
  L 544.57 153.82
  A 2.33 2.33 0.0 0 0 546.71 157.03
  Q 554.59 157.08 564.51 157.06
  C 571.60 157.05 578.68 160.24 577.73 168.76
  Q 576.87 176.51 571.70 184.74
  Q 567.66 191.19 559.84 194.39
  Q 555.31 196.23 544.47 196.19
  Q 516.37 196.06 508.75 196.12
  Z"
/>
<path fill="#6CBBDE" d="
  M 175.02 227.63
  L 172.28 234.68
  A 0.42 0.42 0.0 0 1 171.89 234.95
  L 155.25 234.95
  A 0.42 0.42 0.0 0 0 154.86 235.22
  L 150.28 247.02
  A 0.42 0.42 0.0 0 1 149.89 247.29
  L 138.28 247.29
  A 0.42 0.42 0.0 0 1 137.89 246.72
  L 150.33 214.61
  A 0.42 0.42 0.0 0 1 150.72 214.34
  L 181.59 214.34
  A 0.42 0.42 0.0 0 1 181.98 214.91
  L 179.18 222.13
  A 0.42 0.42 0.0 0 1 178.79 222.40
  L 159.99 222.40
  A 0.42 0.42 0.0 0 0 159.60 222.67
  L 158.11 226.49
  A 0.42 0.42 0.0 0 0 158.50 227.06
  L 174.63 227.06
  A 0.42 0.42 0.0 0 1 175.02 227.63
  Z"
/>
<path fill="#6CBBDE" d="
  M 201.69 214.36
  L 213.04 214.36
  A 0.40 0.40 0.0 0 1 213.41 214.90
  L 200.97 247.05
  A 0.40 0.40 0.0 0 1 200.60 247.31
  L 189.25 247.31
  A 0.40 0.40 0.0 0 1 188.88 246.77
  L 201.32 214.62
  A 0.40 0.40 0.0 0 1 201.69 214.36
  Z"
/>
<path fill="#6CBBDE" d="
  M 239.91 222.39
  L 229.50 222.39
  A 0.49 0.49 0.0 0 1 229.04 221.72
  L 231.78 214.64
  A 0.49 0.49 0.0 0 1 232.24 214.33
  L 266.94 214.33
  A 0.49 0.49 0.0 0 1 267.40 215.00
  L 264.65 222.10
  A 0.49 0.49 0.0 0 1 264.19 222.41
  L 253.46 222.41
  A 0.49 0.49 0.0 0 0 253.00 222.72
  L 243.61 246.98
  A 0.49 0.49 0.0 0 1 243.15 247.29
  L 231.71 247.29
  A 0.49 0.49 0.0 0 1 231.25 246.62
  L 240.37 223.06
  A 0.49 0.49 0.0 0 0 239.91 222.39
  Z"
/>
<path fill="#6CBBDE" d="
  M 286.62 214.32
  L 298.62 214.32
  A 0.44 0.44 0.0 0 1 299.03 214.60
  L 305.56 230.83
  A 0.44 0.44 0.0 0 0 306.38 230.82
  L 312.66 214.62
  A 0.44 0.44 0.0 0 1 313.07 214.34
  L 324.32 214.34
  A 0.44 0.44 0.0 0 1 324.73 214.94
  L 312.31 246.99
  A 0.44 0.44 0.0 0 1 311.90 247.27
  L 300.22 247.27
  A 0.44 0.44 0.0 0 1 299.81 246.99
  L 292.97 230.00
  A 0.44 0.44 0.0 0 0 292.15 230.01
  L 285.59 246.95
  A 0.44 0.44 0.0 0 1 285.18 247.23
  L 274.22 247.23
  A 0.44 0.44 0.0 0 1 273.81 246.63
  L 286.21 214.60
  A 0.44 0.44 0.0 0 1 286.62 214.32
  Z"
/>
<path fill="#6CBBDE" d="
  M 355.03 222.73
  L 353.64 226.34
  A 0.51 0.51 0.0 0 0 354.11 227.03
  L 369.22 227.03
  A 0.51 0.51 0.0 0 1 369.69 227.72
  L 367.23 234.10
  A 0.51 0.51 0.0 0 1 366.75 234.43
  L 350.92 234.43
  A 0.51 0.51 0.0 0 0 350.44 234.76
  L 349.14 238.13
  A 0.51 0.51 0.0 0 0 349.61 238.82
  L 369.74 238.82
  A 0.51 0.51 0.0 0 1 370.21 239.51
  L 367.33 246.96
  A 0.51 0.51 0.0 0 1 366.85 247.29
  L 333.79 247.29
  A 0.51 0.51 0.0 0 1 333.32 246.60
  L 345.68 214.67
  A 0.51 0.51 0.0 0 1 346.16 214.34
  L 377.40 214.34
  A 0.51 0.51 0.0 0 1 377.87 215.03
  L 375.15 222.07
  A 0.51 0.51 0.0 0 1 374.67 222.40
  L 355.51 222.40
  A 0.51 0.51 0.0 0 0 355.03 222.73
  Z"
/>
<path fill="#6CBBDE" d="
  M 386.35 247.29
  A 0.16 0.16 0.0 0 1 386.20 247.07
  L 389.23 239.01
  A 0.33 0.33 0.0 0 1 389.54 238.79
  L 408.78 238.77
  A 3.06 3.06 0.0 0 0 411.64 236.80
  L 411.65 236.75
  A 1.54 1.53 -79.4 0 0 410.22 234.66
  C 403.71 234.68 390.77 236.22 393.52 225.56
  Q 395.32 218.61 400.90 215.73
  Q 403.86 214.20 410.70 214.27
  Q 418.62 214.36 430.02 214.34
  A 0.17 0.17 0.0 0 1 430.18 214.58
  L 427.26 222.38
  A 0.08 0.07 -78.3 0 1 427.19 222.43
  L 409.07 222.51
  A 2.61 2.61 0.0 0 0 406.56 224.40
  L 406.51 224.56
  A 1.50 1.50 0.0 0 0 407.95 226.50
  C 415.39 226.52 427.70 224.72 424.29 236.35
  C 422.27 243.25 417.31 247.32 410.01 247.31
  Q 398.02 247.30 386.35 247.29
  Z"
/>
<path fill="#6CBBDE" d="
  M 438.40 247.34
  A 0.16 0.16 0.0 0 1 438.25 247.12
  L 441.27 239.05
  A 0.33 0.33 0.0 0 1 441.58 238.83
  L 460.83 238.79
  A 3.06 3.06 0.0 0 0 463.69 236.81
  L 463.70 236.76
  A 1.54 1.54 0.0 0 0 462.26 234.67
  C 455.75 234.70 442.80 236.26 445.54 225.59
  Q 447.33 218.63 452.91 215.74
  Q 455.87 214.21 462.71 214.27
  Q 470.64 214.35 482.05 214.31
  A 0.17 0.17 0.0 0 1 482.21 214.55
  L 479.30 222.36
  A 0.08 0.07 -78.3 0 1 479.23 222.41
  L 461.09 222.52
  A 2.61 2.61 0.0 0 0 458.59 224.41
  L 458.54 224.57
  A 1.51 1.50 8.5 0 0 459.98 226.51
  C 467.42 226.52 479.74 224.70 476.34 236.34
  C 474.33 243.25 469.37 247.33 462.07 247.33
  Q 450.07 247.34 438.40 247.34
  Z"
/>
<path fill="#6CBBDE" d="
  M 28.44 227.45
  Q 28.49 227.39 30.26 227.29
  Q 66.27 225.36 124.24 222.34
  A 0.43 0.43 0.0 0 1 124.69 222.84
  L 123.06 232.28
  A 0.80 0.78 -83.5 0 1 122.24 232.94
  L 28.61 227.90
  A 0.27 0.26 -65.8 0 1 28.44 227.45
  Z"
/>
<path fill="#6CBBDE" d="
  M 494.62 232.66
  L 497.34 222.83
  A 0.13 0.13 0.0 0 1 497.47 222.74
  L 582.28 227.31
  A 0.13 0.13 0.0 0 1 582.40 227.45
  L 582.39 227.75
  A 0.13 0.13 0.0 0 1 582.26 227.88
  L 494.75 232.82
  A 0.13 0.13 0.0 0 1 494.62 232.66
  Z"
/>
<path fill="#000000" d="
  M 112.09 311.08
  Q 111.96 325.56 114.83 339.64
  C 116.43 347.50 119.03 356.11 123.96 362.67
  A 0.43 0.43 0.0 0 1 123.62 363.36
  Q 113.88 363.41 108.33 363.15
  C 102.54 362.89 98.50 347.87 97.36 343.00
  Q 93.82 327.93 93.97 310.92
  Q 94.12 293.90 97.93 278.90
  C 99.16 274.05 103.47 259.10 109.26 258.95
  Q 114.81 258.79 124.55 259.01
  A 0.43 0.43 0.0 0 1 124.88 259.71
  C 119.83 266.18 117.08 274.74 115.34 282.57
  Q 112.22 296.60 112.09 311.08
  Z"
/>
<path fill="#000000" d="
  M 515.34 311.04
  Q 515.38 328.54 511.46 344.97
  Q 510.03 350.94 507.62 356.54
  C 506.00 360.33 504.10 363.27 499.75 363.29
  Q 493.07 363.33 485.48 363.29
  A 0.29 0.29 0.0 0 1 485.26 362.82
  Q 487.95 359.45 489.46 356.01
  C 495.28 342.66 497.17 326.17 497.13 311.08
  C 497.10 296.00 495.14 279.52 489.25 266.20
  Q 487.73 262.76 485.03 259.40
  A 0.29 0.29 0.0 0 1 485.24 258.93
  Q 492.83 258.86 499.51 258.87
  C 503.86 258.87 505.78 261.80 507.41 265.58
  Q 509.85 271.17 511.30 277.13
  Q 515.30 293.54 515.34 311.04
  Z"
/>
<path fill="#000000" d="
  M 132.31 311.20
  Q 132.16 328.66 135.42 342.78
  C 136.99 349.60 139.47 357.38 144.49 362.06
  A 0.51 0.51 0.0 0 1 144.32 362.91
  Q 143.29 363.30 142.02 363.32
  Q 132.72 363.44 129.85 363.15
  Q 128.90 363.05 126.56 361.09
  A 2.88 2.67 7.4 0 1 125.97 360.38
  C 117.79 346.35 115.43 327.39 115.58 311.05
  C 115.73 294.71 118.42 275.79 126.84 261.91
  A 2.88 2.67 -6.3 0 1 127.45 261.21
  Q 129.82 259.30 130.78 259.21
  Q 133.65 258.97 142.95 259.26
  Q 144.22 259.30 145.24 259.71
  A 0.51 0.51 0.0 0 1 145.39 260.56
  C 140.29 265.15 137.67 272.89 135.98 279.68
  Q 132.47 293.74 132.31 311.20
  Z"
/>
<path fill="#000000" d="
  M 464.98 363.29
  A 0.38 0.38 0.0 0 1 464.69 362.67
  C 473.02 352.93 475.83 336.62 476.71 324.10
  C 477.84 307.91 476.91 291.42 472.74 276.51
  C 471.14 270.80 468.81 264.37 464.37 260.74
  A 0.46 0.46 0.0 0 1 464.47 259.96
  C 467.67 258.49 473.44 259.11 477.12 259.07
  C 480.29 259.04 481.94 260.04 483.52 262.50
  C 487.96 269.43 490.21 278.23 491.54 286.24
  Q 496.46 315.98 489.95 344.21
  C 488.73 349.47 486.07 357.42 482.20 361.74
  A 4.66 4.66 0.0 0 1 478.73 363.29
  L 464.98 363.29
  Z"
/>
<path fill="#000000" d="
  M 270.92 263.92
  L 281.03 263.92
  A 0.41 0.41 0.0 0 1 281.41 264.47
  L 271.19 291.73
  A 0.41 0.41 0.0 0 1 270.81 292.00
  L 260.77 292.00
  A 0.41 0.41 0.0 0 1 260.39 291.74
  L 254.86 278.03
  A 0.41 0.41 0.0 0 0 254.10 278.04
  L 248.96 291.73
  A 0.41 0.41 0.0 0 1 248.58 292.00
  L 238.95 292.00
  A 0.41 0.41 0.0 0 1 238.57 291.45
  L 248.79 264.19
  A 0.41 0.41 0.0 0 1 249.17 263.92
  L 258.93 263.92
  A 0.41 0.41 0.0 0 1 259.31 264.18
  L 264.74 277.64
  A 0.41 0.41 0.0 0 0 265.50 277.63
  L 270.54 264.19
  A 0.41 0.41 0.0 0 1 270.92 263.92
  Z"
/>
<path fill="#000000" d="
  M 286.32 291.95
  A 0.14 0.14 0.0 0 1 286.19 291.76
  L 288.79 284.89
  A 0.29 0.28 -79.7 0 1 289.06 284.71
  L 305.47 284.74
  A 2.61 2.61 0.0 0 0 307.91 283.06
  L 307.92 283.02
  A 1.31 1.31 0.0 0 0 306.70 281.24
  C 301.15 281.24 290.11 282.52 292.48 273.43
  Q 294.04 267.51 298.80 265.07
  Q 301.33 263.77 307.16 263.85
  Q 313.92 263.94 323.64 263.95
  A 0.15 0.15 0.0 0 1 323.78 264.16
  L 321.27 270.80
  A 0.07 0.06 -78.1 0 1 321.21 270.85
  L 305.75 270.87
  A 2.23 2.22 8.1 0 0 303.61 272.48
  L 303.57 272.61
  A 1.28 1.28 0.0 0 0 304.79 274.27
  C 311.13 274.31 321.64 272.80 318.70 282.71
  C 316.96 288.59 312.72 292.05 306.50 292.02
  Q 296.27 291.99 286.32 291.95
  Z"
/>
<path fill="#000000" d="
  M 361.66 277.21
  C 363.29 278.82 363.89 280.00 363.40 282.44
  C 361.60 291.57 355.39 292.21 346.58 292.07
  Q 339.81 291.95 330.00 292.07
  A 0.64 0.63 -79.8 0 1 329.41 291.21
  L 339.69 264.68
  A 1.18 1.18 0.0 0 1 340.79 263.92
  Q 353.93 263.88 360.18 263.88
  C 364.23 263.89 367.46 265.52 366.64 270.04
  Q 365.77 274.89 361.74 276.75
  A 0.28 0.28 0.0 0 0 361.66 277.21
  Z
  M 356.1400 272.4295
  A 1.70 1.70 0.0 0 0 354.3674 270.8052
  L 348.5729 271.0582
  A 1.70 1.70 0.0 0 0 346.9487 272.8308
  L 346.9600 273.0905
  A 1.70 1.70 0.0 0 0 348.7326 274.7148
  L 354.5271 274.4618
  A 1.70 1.70 0.0 0 0 356.1513 272.6892
  L 356.1400 272.4295
  Z
  M 353.0174 282.1697
  A 1.66 1.66 0.0 0 0 351.3033 280.5656
  L 344.9468 280.7765
  A 1.66 1.66 0.0 0 0 343.3427 282.4906
  L 343.3626 283.0903
  A 1.66 1.66 0.0 0 0 345.0767 284.6944
  L 351.4332 284.4835
  A 1.66 1.66 0.0 0 0 353.0373 282.7694
  L 353.0174 282.1697
  Z"
/>
<path fill="#000000" d="
  M 157.78 324.47
  A 0.83 0.82 8.3 0 1 158.42 325.32
  Q 157.66 340.11 152.55 353.03
  Q 151.25 356.32 148.86 358.54
  A 2.23 2.22 -48.1 0 1 146.02 358.70
  C 142.78 356.30 140.51 349.21 139.62 345.63
  Q 131.20 311.55 139.92 277.74
  C 140.97 273.66 143.05 267.54 146.32 264.75
  A 1.75 1.73 -46.6 0 1 148.50 264.68
  Q 150.59 266.24 151.67 268.58
  C 156.11 278.11 157.74 289.14 158.40 299.75
  A 0.84 0.83 89.7 0 1 157.53 300.63
  L 153.16 300.39
  A 1.69 1.69 0.0 0 1 152.03 299.86
  Q 150.98 298.72 150.13 297.83
  C 146.44 293.92 143.10 298.50 142.11 301.90
  Q 140.02 309.12 141.17 317.72
  C 141.74 322.04 144.89 333.52 151.18 326.01
  Q 153.35 323.42 157.78 324.47
  Z"
/>
<path fill="#000000" d="
  M 451.03 299.76
  Q 451.67 283.38 457.78 269.08
  Q 458.99 266.24 460.99 264.76
  A 2.14 2.13 50.4 0 1 463.83 265.03
  C 467.51 269.03 469.71 277.04 470.79 282.21
  Q 476.42 309.17 471.76 336.25
  C 470.68 342.54 467.66 355.68 463.18 358.78
  A 2.21 2.20 -37.4 0 1 460.24 358.39
  Q 457.78 355.48 456.48 351.73
  Q 452.10 339.06 451.05 324.91
  A 0.61 0.61 0.0 0 1 451.66 324.26
  L 456.37 324.29
  A 3.42 3.23 -33.2 0 1 457.54 324.50
  Q 458.38 324.81 459.67 326.47
  C 463.55 331.47 467.07 325.41 467.90 322.16
  Q 470.37 312.50 468.00 303.00
  C 467.27 300.08 465.33 295.46 461.62 296.61
  C 460.08 297.08 459.27 298.83 458.31 299.90
  A 1.31 1.28 -70.2 0 1 457.42 300.33
  L 451.86 300.58
  A 0.79 0.79 0.0 0 1 451.03 299.76
  Z"
/>
<path fill="#000000" d="
  M 535.63 311.37
  C 535.65 323.06 534.72 336.27 530.05 347.20
  C 528.96 349.75 527.47 351.21 524.61 351.21
  Q 517.12 351.18 514.00 351.15
  A 0.44 0.43 7.8 0 1 513.58 350.60
  Q 518.73 332.03 518.70 311.41
  Q 518.66 290.78 513.43 272.23
  A 0.44 0.43 -8.0 0 1 513.85 271.68
  Q 516.97 271.63 524.46 271.58
  C 527.32 271.57 528.82 273.02 529.92 275.57
  C 534.63 286.49 535.60 299.69 535.63 311.37
  Z"
/>
<path fill="#000000" d="
  M 90.58 311.45
  Q 90.45 332.05 95.52 350.62
  A 0.44 0.43 -7.5 0 1 95.10 351.17
  Q 91.98 351.19 84.50 351.18
  C 81.64 351.17 80.16 349.71 79.08 347.15
  C 74.46 336.21 73.60 323.01 73.67 311.34
  C 73.75 299.67 74.77 286.48 79.53 275.59
  C 80.65 273.05 82.15 271.61 85.00 271.64
  Q 92.48 271.72 95.60 271.78
  A 0.44 0.43 8.3 0 1 96.02 272.33
  Q 90.71 290.84 90.58 311.45
  Z"
/>
<path fill="#6CBBDE" d="
  M 228.99 273.89
  L 227.47 282.68
  A 0.14 0.14 0.0 0 1 227.32 282.80
  L 173.70 278.49
  A 0.14 0.14 0.0 0 1 173.57 278.36
  L 173.56 278.12
  A 0.14 0.14 0.0 0 1 173.69 277.97
  L 228.84 273.72
  A 0.14 0.14 0.0 0 1 228.99 273.89
  Z"
/>
<path fill="#6CBBDE" d="
  M 433.16 278.24
  L 433.16 278.26
  A 0.30 0.30 0.0 0 1 432.88 278.54
  L 378.07 282.89
  A 0.18 0.17 2.3 0 1 377.88 282.69
  L 379.45 274.06
  A 0.24 0.24 0.0 0 1 379.71 273.86
  L 432.89 277.99
  A 0.28 0.28 0.0 0 1 433.16 278.24
  Z"
/>
<path fill="#000000" d="
  M 70.48 324.19
  A 0.21 0.21 0.0 0 1 70.26 324.40
  L 59.90 324.33
  A 7.54 4.85 -89.6 0 1 55.11 316.76
  L 55.19 304.26
  A 7.54 4.85 -89.6 0 1 60.10 296.75
  L 70.46 296.82
  A 0.21 0.21 0.0 0 1 70.66 297.03
  L 70.48 324.19
  Z"
/>
<path fill="#000000" d="
  M 538.79 297.23
  A 0.42 0.42 0.0 0 1 539.21 296.81
  L 549.53 296.77
  A 8.19 4.74 89.8 0 1 554.30 304.94
  L 554.34 316.12
  A 8.19 4.74 89.8 0 1 549.63 324.33
  L 539.31 324.37
  A 0.42 0.42 0.0 0 1 538.89 323.95
  L 538.79 297.23
  Z"
/>
<path fill="#000000" d="
  M 305.00 303.05
  Q 441.16 303.05 456.75 302.74
  Q 459.11 302.69 460.85 300.64
  Q 462.52 298.68 463.88 300.76
  C 465.81 303.70 466.17 308.59 466.17 312.45
  C 466.17 316.30 465.81 321.19 463.88 324.13
  Q 462.52 326.21 460.85 324.25
  Q 459.11 322.20 456.75 322.15
  Q 441.17 321.85 305.00 321.86
  Q 168.83 321.86 153.25 322.17
  Q 150.89 322.22 149.15 324.27
  Q 147.48 326.23 146.12 324.15
  C 144.19 321.21 143.82 316.32 143.82 312.46
  C 143.82 308.61 144.19 303.72 146.12 300.78
  Q 147.48 298.70 149.15 300.66
  Q 150.89 302.71 153.25 302.76
  Q 168.83 303.06 305.00 303.05
  Z"
/>
</svg>
